<svg width="25" height="28" viewBox="0 0 25 28" fill="none" xmlns="http://www.w3.org/2000/svg">
<path d="M4.6875 28C3.82813 28 3.09271 27.6956 2.48125 27.0869C1.8698 26.4781 1.56355 25.7455 1.5625 24.8889V4.66667C1.1198 4.66667 0.748964 4.51733 0.450005 4.21867C0.151047 3.92 0.00104705 3.55081 5.38792e-06 3.11111C-0.00103628 2.67141 0.148964 2.30222 0.450005 2.00356C0.751047 1.70489 1.12188 1.55556 1.5625 1.55556H7.8125C7.8125 1.11481 7.9625 0.74563 8.2625 0.448C8.5625 0.150371 8.93333 0.00103704 9.375 0H15.625C16.0677 0 16.4391 0.149333 16.7391 0.448C17.0391 0.746667 17.1885 1.11585 17.1875 1.55556H23.4375C23.8802 1.55556 24.2516 1.70489 24.5516 2.00356C24.8516 2.30222 25.001 2.67141 25 3.11111C24.999 3.55081 24.849 3.92052 24.55 4.22022C24.251 4.51993 23.8802 4.66874 23.4375 4.66667V24.8889C23.4375 25.7444 23.1318 26.4771 22.5203 27.0869C21.9088 27.6967 21.1729 28.001 20.3125 28H4.6875ZM20.3125 4.66667H4.6875V24.8889H20.3125V4.66667ZM9.375 21.7778C9.81771 21.7778 10.1891 21.6284 10.4891 21.3298C10.7891 21.0311 10.9385 20.6619 10.9375 20.2222V9.33333C10.9375 8.89259 10.7875 8.52341 10.4875 8.22578C10.1875 7.92815 9.81667 7.77881 9.375 7.77778C8.93333 7.77674 8.5625 7.92607 8.2625 8.22578C7.9625 8.52548 7.8125 8.89467 7.8125 9.33333V20.2222C7.8125 20.663 7.9625 21.0327 8.2625 21.3313C8.5625 21.63 8.93333 21.7788 9.375 21.7778ZM15.625 21.7778C16.0677 21.7778 16.4391 21.6284 16.7391 21.3298C17.0391 21.0311 17.1885 20.6619 17.1875 20.2222V9.33333C17.1875 8.89259 17.0375 8.52341 16.7375 8.22578C16.4375 7.92815 16.0667 7.77881 15.625 7.77778C15.1833 7.77674 14.8125 7.92607 14.5125 8.22578C14.2125 8.52548 14.0625 8.89467 14.0625 9.33333V20.2222C14.0625 20.663 14.2125 21.0327 14.5125 21.3313C14.8125 21.63 15.1833 21.7788 15.625 21.7778Z" fill="#5F7D7D"/>
</svg>
