<svg width="37" height="37" viewBox="0 0 37 37" fill="none" xmlns="http://www.w3.org/2000/svg">
<path d="M25.3996 8.33731L28.6633 11.601M27.4978 5.4621L18.6687 14.2912C18.2111 14.7458 17.8998 15.3266 17.7745 15.9593L16.959 20.0416L21.0413 19.2246C21.6734 19.0981 22.2531 18.7883 22.7094 18.3319L31.5385 9.50281C31.8038 9.23749 32.0143 8.92252 32.1579 8.57586C32.3015 8.22921 32.3754 7.85767 32.3754 7.48246C32.3754 7.10724 32.3015 6.7357 32.1579 6.38905C32.0143 6.0424 31.8038 5.72742 31.5385 5.4621C31.2732 5.19679 30.9582 4.98632 30.6116 4.84274C30.2649 4.69915 29.8934 4.62524 29.5182 4.62524C29.143 4.62524 28.7714 4.69915 28.4248 4.84274C28.0781 4.98632 27.7631 5.19679 27.4978 5.4621Z" stroke="#5F7D7D" stroke-width="3" stroke-linecap="round" stroke-linejoin="round"/>
<path d="M29.292 23.1249V27.7499C29.292 28.5677 28.9671 29.3519 28.3889 29.9302C27.8107 30.5084 27.0264 30.8333 26.2087 30.8333H9.25033C8.43257 30.8333 7.64832 30.5084 7.07008 29.9302C6.49184 29.3519 6.16699 28.5677 6.16699 27.7499V10.7916C6.16699 9.97383 6.49184 9.18958 7.07008 8.61134C7.64832 8.0331 8.43257 7.70825 9.25033 7.70825H13.8753" stroke="#5F7D7D" stroke-width="3" stroke-linecap="round" stroke-linejoin="round"/>
</svg>
