<svg width="100" height="100" viewBox="0 0 100 100" fill="none" xmlns="http://www.w3.org/2000/svg">
<rect width="100" height="100" rx="11" fill="#919999"/>
<path d="M50 28.4062C50.8039 28.4062 51.5751 28.7255 52.1436 29.2939C52.712 29.8624 53.0312 30.6336 53.0312 31.4375V46.9688H68.5625C69.3664 46.9688 70.1376 47.288 70.7061 47.8564C71.2745 48.4249 71.5938 49.1961 71.5938 50C71.5938 50.8039 71.2745 51.5751 70.7061 52.1436C70.1376 52.712 69.3664 53.0312 68.5625 53.0312H53.0312V68.5625C53.0312 69.3664 52.712 70.1376 52.1436 70.7061C51.5751 71.2745 50.8039 71.5938 50 71.5938C49.1961 71.5938 48.4249 71.2745 47.8564 70.7061C47.288 70.1376 46.9688 69.3664 46.9688 68.5625V53.0312H31.4375C30.6336 53.0312 29.8624 52.712 29.2939 52.1436C28.7255 51.5751 28.4062 50.8039 28.4062 50C28.4062 49.1961 28.7255 48.4249 29.2939 47.8564C29.8624 47.288 30.6336 46.9688 31.4375 46.9688H46.9688V31.4375C46.9688 30.6336 47.288 29.8624 47.8564 29.2939C48.4249 28.7255 49.1961 28.4062 50 28.4062Z" fill="white" stroke="white"/>
</svg>
