<svg width="31" height="31" viewBox="0 0 31 31" fill="none" xmlns="http://www.w3.org/2000/svg">
<rect x="0.3" y="0.3" width="30.4" height="30.4" rx="4.7" fill="white" stroke="#E4E4E4" stroke-width="0.6"/>
<path d="M8.15644 10.6303L7.37519 9.87504C7.16685 9.68407 7.06685 9.44553 7.07519 9.15942C7.08352 8.87331 7.18352 8.62574 7.37519 8.41671C7.58352 8.20838 7.83109 8.10004 8.1179 8.09171C8.4047 8.08338 8.65192 8.18303 8.85956 8.39067L9.61477 9.14588C9.80574 9.33685 9.90574 9.57574 9.91477 9.86254C9.9238 10.1493 9.8238 10.3966 9.61477 10.6042C9.4238 10.7952 9.18526 10.8952 8.89915 10.9042C8.61304 10.9132 8.36547 10.8219 8.15644 10.6303ZM14.4585 7.16671V6.12504C14.4585 5.82991 14.5585 5.58268 14.7585 5.38338C14.9585 5.18407 15.2057 5.08407 15.5002 5.08338C15.7946 5.08268 16.0422 5.18268 16.2429 5.38338C16.4436 5.58407 16.5432 5.83129 16.5419 6.12504V7.16671C16.5419 7.46185 16.4419 7.70942 16.2419 7.90942C16.0419 8.10942 15.7946 8.20907 15.5002 8.20838C15.2057 8.20768 14.9585 8.10768 14.7585 7.90838C14.5585 7.70907 14.4585 7.46185 14.4585 7.16671ZM21.4377 9.11984L22.1669 8.39067C22.3578 8.1997 22.5967 8.10421 22.8835 8.10421C23.1703 8.10421 23.4175 8.20838 23.6252 8.41671C23.8162 8.60768 23.9116 8.85074 23.9116 9.14588C23.9116 9.44102 23.8162 9.68407 23.6252 9.87504L22.896 10.6042C22.705 10.7952 22.4662 10.8952 22.1794 10.9042C21.8925 10.9132 21.6453 10.8219 21.4377 10.6303C21.2294 10.4219 21.1252 10.1702 21.1252 9.87504C21.1252 9.57991 21.2294 9.32817 21.4377 9.11984ZM12.3752 23.8334V20.7084L9.84915 18.1823C9.65817 17.9914 9.5106 17.7698 9.40644 17.5178C9.30227 17.2657 9.25019 17.0014 9.25019 16.725V14.4584C9.25019 13.8855 9.45401 13.3952 9.86165 12.9875C10.2693 12.5799 10.7599 12.3757 11.3335 12.375H19.6669C20.2398 12.375 20.7304 12.5792 21.1387 12.9875C21.5471 13.3959 21.7509 13.8862 21.7502 14.4584V16.724C21.7502 17.0018 21.6981 17.2667 21.5939 17.5188C21.4898 17.7709 21.3422 17.9921 21.1512 18.1823L18.6252 20.7084V23.8334C18.6252 24.4063 18.4214 24.8969 18.0137 25.3053C17.6061 25.7136 17.1155 25.9174 16.5419 25.9167H14.4585C13.8856 25.9167 13.3953 25.7129 12.9877 25.3053C12.58 24.8976 12.3759 24.407 12.3752 23.8334Z" fill="#414141"/>
</svg>
