<svg width="31" height="31" viewBox="0 0 31 31" fill="none" xmlns="http://www.w3.org/2000/svg">
<rect x="0.3" y="0.3" width="30.4" height="30.4" rx="4.7" fill="white" stroke="#E4E4E4" stroke-width="0.6"/>
<path d="M14.7259 19.1004C14.7259 18.2571 14.5055 17.5489 14.0647 16.9758C13.7522 16.581 13.3283 16.3216 12.7929 16.1976C12.2659 16.075 11.7675 16.0663 11.3171 16.1708C11.1638 15.2604 11.4129 14.2963 12.0454 13.2747C12.6792 12.2538 13.4964 11.4861 14.4969 10.9718L12.9817 8.79163C12.2151 9.17113 11.4867 9.65221 10.8159 10.2339C10.1355 10.8156 9.53174 11.4845 8.99507 12.2407C8.45841 12.9968 8.05591 13.8507 7.79716 14.8186C7.53841 15.7865 7.46653 16.7736 7.59016 17.7894C7.75116 19.1311 8.18432 20.2044 8.88966 20.9998C9.59435 21.8055 10.4722 22.2083 11.5232 22.2083C12.4479 22.2083 13.2156 21.9304 13.8232 21.3669C14.4244 20.8149 14.7246 20.0584 14.724 19.0975L14.7259 19.1004ZM23.4697 19.1004C23.4697 18.2571 23.2493 17.5489 22.8085 16.9758C22.4954 16.5733 22.0715 16.3123 21.5368 16.1928C21.0001 16.0746 20.5082 16.0676 20.0609 16.1718C19.9076 15.2709 20.1472 14.303 20.7816 13.2776C21.4141 12.2618 22.2306 11.4951 23.2311 10.9776L21.7198 8.79163C20.9525 9.17113 20.2306 9.65189 19.554 10.2339C18.8674 10.8243 18.2577 11.4985 17.7389 12.2407C17.2061 12.9978 16.8093 13.8507 16.5506 14.8186C16.2877 15.7857 16.2171 16.7951 16.3426 17.7894C16.5017 19.1311 16.9329 20.2044 17.6364 20.9998C18.3391 21.7997 19.2154 22.1997 20.2651 22.1997C21.1915 22.2009 21.9588 21.9208 22.567 21.3592C23.1682 20.8072 23.4691 20.0508 23.4697 19.0899V19.1004Z" fill="#414141"/>
</svg>
