<svg width="31" height="31" viewBox="0 0 31 31" fill="none" xmlns="http://www.w3.org/2000/svg">
<rect x="0.3" y="0.3" width="30.4" height="30.4" rx="4.7" fill="white" stroke="#E4E4E4" stroke-width="0.6"/>
<path d="M6.12517 17.5833C5.83003 17.5833 5.58281 17.4833 5.3835 17.2833C5.18419 17.0833 5.08419 16.8361 5.0835 16.5416C5.08281 16.2472 5.18281 16 5.3835 15.8C5.58419 15.6 5.83142 15.5 6.12517 15.5H24.8752C25.1703 15.5 25.4179 15.6 25.6179 15.8C25.8179 16 25.9175 16.2472 25.9168 16.5416C25.9161 16.8361 25.8161 17.0836 25.6168 17.2843C25.4175 17.485 25.1703 17.5847 24.8752 17.5833H6.12517ZM13.9377 13.4166V10.2916H9.771C9.33697 10.2916 8.96822 10.1399 8.66475 9.83642C8.36128 9.53295 8.20919 9.16385 8.2085 8.72913C8.20781 8.2944 8.35989 7.92565 8.66475 7.62288C8.96961 7.3201 9.33836 7.16801 9.771 7.16663H21.2293C21.6634 7.16663 22.0325 7.31871 22.3366 7.62288C22.6408 7.92704 22.7925 8.29579 22.7918 8.72913C22.7911 9.16246 22.6394 9.53156 22.3366 9.83642C22.0338 10.1413 21.6647 10.293 21.2293 10.2916H17.0627V13.4166H13.9377ZM13.9377 19.6666H17.0627V22.2708C17.0627 22.7048 16.9109 23.0739 16.6075 23.3781C16.304 23.6823 15.9349 23.834 15.5002 23.8333C15.0654 23.8326 14.6967 23.6809 14.3939 23.3781C14.0911 23.0753 13.9391 22.7062 13.9377 22.2708V19.6666Z" fill="#414141"/>
</svg>
