<svg width="31" height="31" viewBox="0 0 31 31" fill="none" xmlns="http://www.w3.org/2000/svg">
<rect x="0.3" y="0.3" width="30.4" height="30.4" rx="4.7" fill="white" stroke="#E4E4E4" stroke-width="0.6"/>
<path d="M13 8.5C13 7.80859 13.5586 7.25 14.25 7.25H21.75C22.4414 7.25 23 7.80859 23 8.5C23 9.19141 22.4414 9.75 21.75 9.75H19.457L14.25 22.25H16.75C17.4414 22.25 18 22.8086 18 23.5C18 24.1914 17.4414 24.75 16.75 24.75H9.25C8.55859 24.75 8 24.1914 8 23.5C8 22.8086 8.55859 22.25 9.25 22.25H11.543L16.75 9.75H14.25C13.5586 9.75 13 9.19141 13 8.5Z" fill="#414141"/>
</svg>
