<svg width="31" height="31" viewBox="0 0 31 31" fill="none" xmlns="http://www.w3.org/2000/svg">
<rect x="0.3" y="0.3" width="30.4" height="30.4" rx="4.7" fill="white" stroke="#E4E4E4" stroke-width="0.6"/>
<g clip-path="url(#clip0_84_39)">
<path d="M18.0107 6.55113C18.1926 6.60202 18.3627 6.68826 18.5112 6.80492C18.6598 6.92159 18.7839 7.06638 18.8764 7.23103C18.969 7.39569 19.0282 7.57697 19.0507 7.76451C19.0731 7.95206 19.0584 8.14219 19.0073 8.32404L14.761 23.4532C14.658 23.8204 14.4135 24.1316 14.0811 24.3184C13.7487 24.5052 13.3557 24.5524 12.9885 24.4494C12.6214 24.3465 12.3102 24.1019 12.1233 23.7695C11.9365 23.4371 11.8894 23.0441 11.9923 22.677L16.2387 7.54588C16.2897 7.36406 16.376 7.19408 16.4927 7.04563C16.6094 6.89719 16.7542 6.77319 16.9189 6.68072C17.0835 6.58826 17.2648 6.52913 17.4523 6.50673C17.6398 6.48433 17.8298 6.49909 18.0116 6.55017L18.0107 6.55113ZM11.2448 10.418C11.514 10.6875 11.6652 11.0529 11.6652 11.4338C11.6652 11.8148 11.514 12.1801 11.2448 12.4497L8.19734 15.5L11.2468 18.5495C11.5163 18.8191 11.6677 19.1848 11.6676 19.5661C11.6675 19.9474 11.5159 20.313 11.2463 20.5826C10.9766 20.8521 10.6109 21.0035 10.2296 21.0034C9.84834 21.0033 9.48272 20.8518 9.21317 20.5821L5.14696 16.5159C4.87777 16.2463 4.72656 15.881 4.72656 15.5C4.72656 15.1191 4.87777 14.7537 5.14696 14.4842L9.21221 10.418C9.34571 10.2844 9.50422 10.1785 9.67869 10.1062C9.85315 10.0339 10.0402 9.99664 10.229 9.99664C10.4179 9.99664 10.6049 10.0339 10.7793 10.1062C10.9538 10.1785 11.1113 10.2844 11.2448 10.418ZM19.7548 12.4497C19.6136 12.3181 19.5003 12.1594 19.4218 11.983C19.3432 11.8067 19.3009 11.6163 19.2975 11.4233C19.2941 11.2303 19.3296 11.0386 19.4019 10.8596C19.4742 10.6806 19.5818 10.518 19.7184 10.3815C19.8549 10.245 20.0175 10.1374 20.1964 10.0651C20.3754 9.9928 20.5672 9.95729 20.7602 9.9607C20.9532 9.96411 21.1435 10.0064 21.3199 10.0849C21.4962 10.1635 21.6549 10.2768 21.7865 10.418L25.8527 14.4833C26.1222 14.7528 26.2736 15.1184 26.2736 15.4996C26.2736 15.8807 26.1222 16.2463 25.8527 16.5159L21.7875 20.5821C21.654 20.7156 21.4955 20.8215 21.3211 20.8938C21.1467 20.9661 20.9598 21.0033 20.771 21.0034C20.5822 21.0034 20.3953 20.9663 20.2208 20.8941C20.0464 20.8219 19.8879 20.716 19.7544 20.5826C19.6208 20.4491 19.5149 20.2906 19.4426 20.1162C19.3703 19.9418 19.3331 19.7549 19.3331 19.5661C19.333 19.3773 19.3701 19.1904 19.4424 19.0159C19.5146 18.8415 19.6204 18.683 19.7539 18.5495L22.8033 15.5L19.7548 12.4497Z" fill="#414141"/>
</g>
<defs>
<clipPath id="clip0_84_39">
<rect width="23" height="23" fill="white" transform="translate(4 4)"/>
</clipPath>
</defs>
</svg>
