<svg width="31" height="31" viewBox="0 0 31 31" fill="none" xmlns="http://www.w3.org/2000/svg">
<rect x="0.3" y="0.3" width="30.4" height="30.4" rx="4.7" fill="white" stroke="#E4E4E4" stroke-width="0.6"/>
<path d="M17 6.5C18.0471 6.49994 19.0724 6.79876 19.9554 7.36134C20.8385 7.92392 21.5427 8.72688 21.9851 9.67585C22.4276 10.6248 22.59 11.6804 22.4532 12.7185C22.3164 13.7565 21.8862 14.734 21.213 15.536C22.1423 16.2046 22.8397 17.1466 23.2081 18.2305C23.5765 19.3145 23.5975 20.4863 23.2681 21.5828C22.9388 22.6792 22.2755 23.6455 21.3707 24.347C20.466 25.0485 19.3649 25.4501 18.221 25.496L18 25.5H10.1C9.70098 25.4999 9.3164 25.3507 9.02169 25.0818C8.72698 24.8128 8.54341 24.4434 8.507 24.046L8.5 23.9V8.1C8.50008 7.70098 8.64925 7.3164 8.91825 7.02169C9.18724 6.72698 9.55665 6.54341 9.954 6.507L10.1 6.5H17ZM18 17.5H11.5V22.5H18C18.663 22.5 19.2989 22.2366 19.7678 21.7678C20.2366 21.2989 20.5 20.663 20.5 20C20.5 19.337 20.2366 18.7011 19.7678 18.2322C19.2989 17.7634 18.663 17.5 18 17.5ZM17 9.5H11.5V14.5H17C17.663 14.5 18.2989 14.2366 18.7678 13.7678C19.2366 13.2989 19.5 12.663 19.5 12C19.5 11.337 19.2366 10.7011 18.7678 10.2322C18.2989 9.76339 17.663 9.5 17 9.5Z" fill="#414141"/>
</svg>
